<?xml version="1.0" encoding="utf-8"?>
<!-- Generator: Adobe Illustrator 25.0.0, SVG Export Plug-In . SVG Version: 6.00 Build 0)  -->
<svg version="1.1" id="Capa_1" xmlns="http://www.w3.org/2000/svg" xmlns:xlink="http://www.w3.org/1999/xlink" x="0px" y="0px"
	 viewBox="0 0 512 512" style="enable-background:new 0 0 512 512;" xml:space="preserve">
<style type="text/css">
	.st0{fill:#FFFFFF;}
	.st1{fill:#37afe3;}
</style>
<g>
	<g>
		<circle class="st0" cx="230.5" cy="265.5" r="190.5"/>
		<path class="st1" d="M256,0C114.64,0,0,114.64,0,256s114.64,256,256,256s256-114.64,256-256S397.36,0,256,0z M261.43,405.05
			C261.42,405.05,261.43,405.05,261.43,405.05h-0.06c-25.64-0.01-50.84-6.44-73.22-18.64l-81.22,21.3l21.74-79.38
			c-13.41-23.23-20.46-49.58-20.45-76.57C108.24,167.3,176.97,98.6,261.43,98.6c40.98,0.02,79.46,15.97,108.38,44.92
			c28.93,28.95,44.85,67.44,44.84,108.36C414.61,336.34,345.87,405.05,261.43,405.05z"/>
	</g>
	<path class="st1" d="M261.48,124.47c-70.25,0-127.38,57.11-127.41,127.3c-0.01,24.05,6.73,47.48,19.47,67.75l3.03,4.82
		l-12.87,46.98l48.2-12.64l4.65,2.76c19.55,11.6,41.96,17.74,64.82,17.75h0.05c70.19,0,127.32-57.11,127.35-127.31
		c0.01-34.02-13.22-66-37.27-90.07S295.49,124.48,261.48,124.47z M336.38,306.5c-3.19,8.94-18.48,17.1-25.84,18.2
		c-6.6,0.98-14.94,1.39-24.11-1.52c-5.56-1.77-12.69-4.12-21.83-8.06c-38.4-16.58-63.48-55.23-65.4-57.79s-15.63-20.75-15.63-39.59
		c0-18.84,9.89-28.1,13.4-31.93c3.51-3.83,7.66-4.79,10.21-4.79s5.11,0.02,7.34,0.13c2.35,0.12,5.51-0.89,8.61,6.57
		c3.19,7.66,10.85,26.5,11.8,28.41c0.96,1.92,1.59,4.15,0.32,6.71c-1.28,2.55-5.52,8.07-9.57,13.09c-1.7,2.11-3.91,3.98-1.68,7.81
		c2.23,3.83,9.92,16.36,21.3,26.51c14.62,13.04,26.96,17.08,30.79,19c3.82,1.91,6.06,1.59,8.29-0.96
		c2.23-2.55,9.57-11.18,12.12-15.01s5.11-3.19,8.61-1.91c3.51,1.27,22.33,10.54,26.16,12.45c3.83,1.92,6.38,2.88,7.34,4.47
		C339.57,289.9,339.57,297.56,336.38,306.5z"/>
</g>
</svg>
